<?xml version="1.0" standalone="no"?>
<!DOCTYPE svg PUBLIC "-//W3C//DTD SVG 20010904//EN"
 "http://www.w3.org/TR/2001/REC-SVG-20010904/DTD/svg10.dtd">
<svg version="1.0" xmlns="http://www.w3.org/2000/svg"
 width="512.000000pt" height="512.000000pt" viewBox="0 0 512.000000 512.000000"
 preserveAspectRatio="xMidYMid meet">
<metadata>
Created by potrace 1.14, written by Peter Selinger 2001-2017
</metadata>
<g transform="translate(0.000000,512.000000) scale(0.100000,-0.100000)"
fill="#000000" stroke="none">
<path d="M860 3983 c-84 -29 -151 -89 -191 -171 l-24 -47 0 -1205 0 -1205 24
-48 c28 -54 95 -126 135 -145 14 -6 38 -18 53 -24 20 -10 383 -13 1707 -13
l1681 0 54 28 c67 36 115 83 149 150 l27 52 0 1200 0 1200 -26 56 c-33 70 -80
119 -150 155 l-54 29 -1670 2 c-1496 1 -1675 0 -1715 -14z"/>
</g>
</svg>
